REM DIRINDEX 1\8,1\2\11,1\3\12,1\3\14,1\5\15,1\5\16,1\6\17,1\6\18,1\4\19,1\4\20,1\4\21,1\4\22,1\7\23,1\7\24,1\7\25,1\2\9\26,1\2\9\27,1\2\10\28,1\2\10\29,1\2\10\30,1\2\10\31,1\2\10\32,1\3\13\33,1\3\13\34,1\3\13\35
REM DIRNAME folder01,folder02,folder03,folder04,folder05,folder06,folder07,folder08,folder09,folder10,folder11,folder12,folder13,folder14,folder15,folder16,folder17,folder18,folder19,folder20,folder21,folder22,folder23,folder24,folder25,folder26,folder27,folder28,folder29,folder30,folder31,folder32,folder33,folder34,folder35
TITLE ""
FILE "155 155_例文UNIT6_SET3.mp3" MP3
  TRACK 01 AUDIO
    TITLE "22:cjc123_4107"
    INDEX 01 00:00:00
  TRACK 02 AUDIO
    TITLE "0:"
    INDEX 01 00:02:53
  TRACK 03 AUDIO
    TITLE "19:cjc123_4108"
    INDEX 01 00:03:31
  TRACK 04 AUDIO
    TITLE "0:"
    INDEX 01 00:07:37
  TRACK 05 AUDIO
    TITLE "20:cjc123_4109"
    INDEX 01 00:07:68
  TRACK 06 AUDIO
    TITLE "0:"
    INDEX 01 00:11:40
  TRACK 07 AUDIO
    TITLE "21:cjc123_4110"
    INDEX 01 00:11:68
  TRACK 08 AUDIO
    TITLE "0:"
    INDEX 01 00:15:70
  TRACK 09 AUDIO
    TITLE "19:cjc123_4111"
    INDEX 01 00:16:44
  TRACK 10 AUDIO
    TITLE "0:"
    INDEX 01 00:20:57
  TRACK 11 AUDIO
    TITLE "20:cjc123_4112"
    INDEX 01 00:21:13
  TRACK 12 AUDIO
    TITLE "0:"
    INDEX 01 00:24:55
  TRACK 13 AUDIO
    TITLE "21:cjc123_4113"
    INDEX 01 00:25:09
  TRACK 14 AUDIO
    TITLE "0:"
    INDEX 01 00:29:21
  TRACK 15 AUDIO
    TITLE "19:cjc123_4114"
    INDEX 01 00:29:72
  TRACK 16 AUDIO
    TITLE "0:"
    INDEX 01 00:36:19
  TRACK 17 AUDIO
    TITLE "20:cjc123_4115"
    INDEX 01 00:36:56
  TRACK 18 AUDIO
    TITLE "0:"
    INDEX 01 00:41:59
  TRACK 19 AUDIO
    TITLE "21:cjc123_4116"
    INDEX 01 00:42:10
  TRACK 20 AUDIO
    TITLE "0:"
    INDEX 01 00:48:32
  TRACK 21 AUDIO
    TITLE "19:cjc123_4117"
    INDEX 01 00:49:10
  TRACK 22 AUDIO
    TITLE "0:"
    INDEX 01 00:55:04
  TRACK 23 AUDIO
    TITLE "20:cjc123_4118"
    INDEX 01 00:55:36
  TRACK 24 AUDIO
    TITLE "0:"
    INDEX 01 01:01:27
  TRACK 25 AUDIO
    TITLE "21:cjc123_4119"
    INDEX 01 01:01:56
  TRACK 26 AUDIO
    TITLE "0:"
    INDEX 01 01:07:49
  TRACK 27 AUDIO
    TITLE "19:cjc123_4120"
    INDEX 01 01:08:36
  TRACK 28 AUDIO
    TITLE "0:"
    INDEX 01 01:13:08
  TRACK 29 AUDIO
    TITLE "20:cjc123_4121"
    INDEX 01 01:13:44
  TRACK 30 AUDIO
    TITLE "0:"
    INDEX 01 01:19:50
  TRACK 31 AUDIO
    TITLE "21:cjc123_4122"
    INDEX 01 01:20:06
  TRACK 32 AUDIO
    TITLE "0:"
    INDEX 01 01:24:53
  TRACK 33 AUDIO
    TITLE "19:cjc123_4123"
    INDEX 01 01:25:25
  TRACK 34 AUDIO
    TITLE "0:"
    INDEX 01 01:29:39
  TRACK 35 AUDIO
    TITLE "20:cjc123_4124"
    INDEX 01 01:30:01
  TRACK 36 AUDIO
    TITLE "0:"
    INDEX 01 01:33:70
  TRACK 37 AUDIO
    TITLE "21:cjc123_4125"
    INDEX 01 01:34:22
  TRACK 38 AUDIO
    TITLE "0:"
    INDEX 01 01:38:36
  TRACK 39 AUDIO
    TITLE "19:cjc123_4126"
    INDEX 01 01:39:15
  TRACK 40 AUDIO
    TITLE "0:"
    INDEX 01 01:44:03
  TRACK 41 AUDIO
    TITLE "20:cjc123_4127"
    INDEX 01 01:44:52
  TRACK 42 AUDIO
    TITLE "0:"
    INDEX 01 01:49:32
  TRACK 43 AUDIO
    TITLE "21:cjc123_4128"
    INDEX 01 01:49:59
  TRACK 44 AUDIO
    TITLE "0:"
    INDEX 01 01:54:48
  TRACK 45 AUDIO
    TITLE "19:cjc123_4129"
    INDEX 01 01:55:36
  TRACK 46 AUDIO
    TITLE "0:"
    INDEX 01 02:01:48
  TRACK 47 AUDIO
    TITLE "20:cjc123_4130"
    INDEX 01 02:02:03
  TRACK 48 AUDIO
    TITLE "0:"
    INDEX 01 02:08:54
  TRACK 49 AUDIO
    TITLE "21:cjc123_4131"
    INDEX 01 02:09:09
  TRACK 50 AUDIO
    TITLE "0:"
    INDEX 01 02:15:21
  TRACK 51 AUDIO
    TITLE "19:cjc123_4132"
    INDEX 01 02:15:72
  TRACK 52 AUDIO
    TITLE "0:"
    INDEX 01 02:21:61
  TRACK 53 AUDIO
    TITLE "20:cjc123_4133"
    INDEX 01 02:22:19
  TRACK 54 AUDIO
    TITLE "0:"
    INDEX 01 02:27:54
  TRACK 55 AUDIO
    TITLE "21:cjc123_4134"
    INDEX 01 02:28:10
  TRACK 56 AUDIO
    TITLE "0:"
    INDEX 01 02:34:01
  TRACK 57 AUDIO
    TITLE "19:cjc123_4135"
    INDEX 01 02:34:48
  TRACK 58 AUDIO
    TITLE "0:"
    INDEX 01 02:39:47
  TRACK 59 AUDIO
    TITLE "20:cjc123_4136"
    INDEX 01 02:40:05
  TRACK 60 AUDIO
    TITLE "0:"
    INDEX 01 02:46:02
  TRACK 61 AUDIO
    TITLE "21:cjc123_4137"
    INDEX 01 02:46:30
  TRACK 62 AUDIO
    TITLE "0:"
    INDEX 01 02:51:29
  TRACK 63 AUDIO
    TITLE "19:cjc123_4138"
    INDEX 01 02:52:18
  TRACK 64 AUDIO
    TITLE "0:"
    INDEX 01 02:57:35
  TRACK 65 AUDIO
    TITLE "20:cjc123_4139"
    INDEX 01 02:57:63
  TRACK 66 AUDIO
    TITLE "0:"
    INDEX 01 03:02:68
  TRACK 67 AUDIO
    TITLE "21:cjc123_4140"
    INDEX 01 03:03:28
  TRACK 68 AUDIO
    TITLE "0:"
    INDEX 01 03:08:45
  TRACK 69 AUDIO
    TITLE "19:cjc123_4141"
    INDEX 01 03:09:05
  TRACK 70 AUDIO
    TITLE "0:"
    INDEX 01 03:14:18
  TRACK 71 AUDIO
    TITLE "20:cjc123_4142"
    INDEX 01 03:14:53
  TRACK 72 AUDIO
    TITLE "0:"
    INDEX 01 03:19:49
  TRACK 73 AUDIO
    TITLE "21:cjc123_4143"
    INDEX 01 03:20:01
  TRACK 74 AUDIO
    TITLE "0:"
    INDEX 01 03:25:14
  TRACK 75 AUDIO
    TITLE "19:cjc123_4144"
    INDEX 01 03:25:63
  TRACK 76 AUDIO
    TITLE "0:"
    INDEX 01 03:30:11
  TRACK 77 AUDIO
    TITLE "20:cjc123_4145"
    INDEX 01 03:30:44
  TRACK 78 AUDIO
    TITLE "0:"
    INDEX 01 03:34:25
  TRACK 79 AUDIO
    TITLE "21:cjc123_4146"
    INDEX 01 03:34:52
  TRACK 80 AUDIO
    TITLE "0:"
    INDEX 01 03:39:00
  TRACK 81 AUDIO
    TITLE "19:cjc123_4147"
    INDEX 01 03:39:47
  TRACK 82 AUDIO
    TITLE "0:"
    INDEX 01 03:44:56
  TRACK 83 AUDIO
    TITLE "20:cjc123_4148"
    INDEX 01 03:45:07
  TRACK 84 AUDIO
    TITLE "0:"
    INDEX 01 03:50:18
  TRACK 85 AUDIO
    TITLE "21:cjc123_4149"
    INDEX 01 03:50:45
  TRACK 86 AUDIO
    TITLE "0:"
    INDEX 01 03:55:52
  TRACK 87 AUDIO
    TITLE "19:cjc123_4150"
    INDEX 01 03:56:24
  TRACK 88 AUDIO
    TITLE "0:"
    INDEX 01 04:00:32
  TRACK 89 AUDIO
    TITLE "20:cjc123_4151"
    INDEX 01 04:00:65
  TRACK 90 AUDIO
    TITLE "0:"
    INDEX 01 04:05:25
  TRACK 91 AUDIO
    TITLE "21:cjc123_4152"
    INDEX 01 04:05:53
  TRACK 92 AUDIO
    TITLE "0:"
    INDEX 01 04:09:60
